<?xml version="1.0" standalone="no"?>
<!DOCTYPE svg PUBLIC "-//W3C//DTD SVG 20010904//EN"
 "http://www.w3.org/TR/2001/REC-SVG-20010904/DTD/svg10.dtd">
<svg version="1.0" xmlns="http://www.w3.org/2000/svg"
 width="700.000000pt" height="700.000000pt" viewBox="0 0 700.000000 700.000000"
 preserveAspectRatio="xMidYMid meet">
<metadata>
Created by potrace 1.14, written by Peter Selinger 2001-2017
</metadata>
<g transform="translate(0.000000,700.000000) scale(0.100000,-0.100000)"
fill="#000000" stroke="none">
<path d="M1365 6990 c-283 -6 -305 -8 -390 -33 -495 -142 -840 -512 -951
-1018 -18 -80 -19 -182 -19 -2439 0 -2196 1 -2360 18 -2435 58 -272 178 -495
363 -679 189 -189 440 -320 704 -367 111 -21 4709 -21 4820 0 543 98 956 504
1068 1051 16 79 17 242 17 2425 0 2562 4 2393 -61 2595 -126 395 -447 719
-835 843 -204 66 -9 61 -2329 62 -1158 1 -2240 -2 -2405 -5z m-147 -880 c926
-66 1777 -350 2536 -847 997 -652 1768 -1668 2123 -2798 142 -454 233 -1004
244 -1485 l3 -105 -435 0 -434 0 -7 150 c-31 693 -181 1265 -482 1850 -507
983 -1370 1742 -2413 2120 -427 156 -968 254 -1390 255 l-83 0 0 435 0 435 96
0 c52 0 161 -5 242 -10z m-159 -1745 c654 -29 1312 -257 1844 -637 598 -427
1049 -1040 1282 -1743 110 -329 177 -696 187 -1020 l2 -90 -434 0 -435 0 -2
50 c-7 133 -26 317 -43 413 -139 769 -647 1469 -1345 1854 -342 188 -701 289
-1087 305 l-148 6 0 439 0 438 23 -4 c12 -3 82 -7 156 -11z m859 -1761 c343
-70 615 -342 689 -689 21 -97 13 -305 -16 -399 -148 -494 -654 -752 -1144
-581 -234 81 -428 276 -516 519 -41 113 -55 215 -48 344 10 185 74 351 192
499 203 253 529 371 843 307z"/>
</g>
</svg>
