<svg id="svg" version="1.1" xmlns="http://www.w3.org/2000/svg" xmlns:xlink="http://www.w3.org/1999/xlink" width="400" height="399.68304278922346" viewBox="0, 0, 400,399.68304278922346"><g id="svgg"><path id="path0" d="M95.780 63.998 C 94.570 64.312,93.355 65.352,92.601 66.719 C 92.132 67.569,92.076 69.377,92.076 83.677 C 92.076 104.929,91.324 103.552,103.328 104.270 C 206.894 110.471,288.262 191.838,294.462 295.404 C 295.180 307.393,293.831 306.656,315.055 306.656 L 331.062 306.656 332.358 305.913 C 335.447 304.143,335.756 297.098,333.569 278.288 C 320.662 167.266,232.397 78.566,121.612 65.288 C 111.372 64.061,98.094 63.398,95.780 63.998 M95.780 145.163 C 94.578 145.447,93.363 146.479,92.601 147.861 C 92.132 148.710,92.076 150.518,92.076 164.818 L 92.076 180.824 92.868 182.250 C 94.165 184.585,95.391 184.966,104.073 185.731 C 161.985 190.835,207.845 237.801,213.321 297.610 C 213.917 304.120,214.810 305.770,218.130 306.495 C 221.007 307.123,249.651 306.805,250.872 306.132 C 253.701 304.571,254.166 302.688,253.621 295.016 C 248.666 225.303,199.228 166.490,131.270 149.463 C 118.430 146.246,100.422 144.064,95.780 145.163 M129.203 226.008 C 94.948 229.079,79.742 270.533,103.980 294.771 C 126.475 317.266,165.046 305.930,171.923 274.802 C 177.719 248.564,155.878 223.617,129.203 226.008 " stroke="none" fill="#fcfbfb" fill-rule="evenodd"></path><path id="path1" d="M0.000 199.842 L 0.000 399.683 200.000 399.683 L 400.000 399.683 400.000 199.842 L 400.000 0.000 200.000 0.000 L 0.000 0.000 0.000 199.842 M114.005 64.479 C 229.635 75.881,320.303 164.173,333.569 278.288 C 335.756 297.098,335.447 304.143,332.358 305.913 L 331.062 306.656 315.055 306.656 C 293.831 306.656,295.180 307.393,294.462 295.404 C 288.262 191.838,206.894 110.471,103.328 104.270 C 91.324 103.552,92.076 104.929,92.076 83.677 C 92.076 66.198,92.016 66.805,93.927 65.020 C 95.448 63.599,103.015 63.395,114.005 64.479 M106.684 145.325 C 186.021 152.809,248.001 215.951,253.621 295.016 C 254.166 302.688,253.701 304.571,250.872 306.132 C 249.651 306.805,221.007 307.123,218.130 306.495 C 214.810 305.770,213.917 304.120,213.321 297.610 C 207.845 237.801,161.985 190.835,104.073 185.731 C 95.391 184.966,94.165 184.585,92.868 182.250 L 92.076 180.824 92.076 164.818 C 92.076 147.339,92.016 147.946,93.927 146.161 C 95.431 144.756,98.511 144.554,106.684 145.325 M139.461 226.505 C 171.701 232.101,184.087 272.172,160.668 295.114 C 139.729 315.626,104.291 307.383,94.463 279.715 C 84.154 250.690,109.067 221.230,139.461 226.505 " stroke="none" fill="#5c64f4" fill-rule="evenodd"></path></g></svg>