<svg id="svg" version="1.1" xmlns="http://www.w3.org/2000/svg" xmlns:xlink="http://www.w3.org/1999/xlink" width="400" height="400" viewBox="0, 0, 400,400"><g id="svgg"><rect width="400" height="400" rx="74" fill="#5c64f4"/><circle xmlns="http://www.w3.org/2000/svg" cx="100" cy="300" r="49.7" fill="white"/><path id="path0" d="M50.000 74.940 L 50.000 99.879 58.691 100.127 C 189.073 103.844,296.193 211.046,299.881 341.504 L 300.121 350.000 325.092 350.000 L 350.063 350.000 349.821 343.262 C 347.937 290.762,335.217 244.613,310.926 202.148 C 257.131 108.102,159.561 50.977,51.074 50.010 L 50.000 50.000 50.000 74.940 M50.000 174.963 L 50.000 200.000 54.004 200.001 C 130.213 200.027,197.125 265.826,199.886 343.457 L 200.119 350.000 225.097 350.000 L 250.074 350.000 249.815 344.043 C 245.130 236.454,163.546 154.870,55.957 150.185 L 50.000 149.926 50.000 174.963" fill="white"/></g></svg>