<svg id="svg" version="1.1" xmlns="http://www.w3.org/2000/svg" xmlns:xlink="http://www.w3.org/1999/xlink" width="400" height="400" viewBox="0, 0, 400,400"><g id="svgg"><path id="path0" d="M21.671 21.973 L 18.555 25.195 21.777 22.079 C 24.770 19.186,25.178 18.750,24.893 18.750 C 24.834 18.750,23.384 20.200,21.671 21.973 M377.930 21.875 C 379.638 23.594,381.124 25.000,381.232 25.000 C 381.339 25.000,380.029 23.594,378.320 21.875 C 376.612 20.156,375.126 18.750,375.018 18.750 C 374.911 18.750,376.221 20.156,377.930 21.875 M50.000 74.940 L 50.000 99.879 58.691 100.127 C 189.073 103.844,296.193 211.046,299.881 341.504 L 300.121 350.000 325.092 350.000 L 350.063 350.000 349.821 343.262 C 347.937 290.762,335.217 244.613,310.926 202.148 C 257.131 108.102,159.561 50.977,51.074 50.010 L 50.000 50.000 50.000 74.940 M50.000 174.963 L 50.000 200.000 54.004 200.001 C 130.213 200.027,197.125 265.826,199.886 343.457 L 200.119 350.000 225.097 350.000 L 250.074 350.000 249.815 344.043 C 245.130 236.454,163.546 154.870,55.957 150.185 L 50.000 149.926 50.000 174.963 M94.336 250.453 C 53.088 255.082,35.392 305.868,64.821 335.162 C 96.253 366.449,149.747 344.302,149.747 300.000 C 149.747 270.161,123.986 247.126,94.336 250.453 M18.750 375.107 C 18.750 375.167,20.112 376.529,21.777 378.135 L 24.805 381.055 21.885 378.027 C 19.173 375.216,18.750 374.822,18.750 375.107 M377.919 378.223 L 375.195 381.055 378.027 378.331 C 380.658 375.801,381.038 375.391,380.751 375.391 C 380.692 375.391,379.417 376.665,377.919 378.223 " stroke="none" fill="#fcfbfb" fill-rule="evenodd"></path><path id="path1" d="M64.901 0.630 C 31.414 5.177,4.969 31.795,0.600 65.352 C -0.314 72.371,-0.310 327.673,0.604 334.648 C 5.035 368.461,31.539 394.965,65.352 399.396 C 72.270 400.303,327.639 400.315,334.550 399.409 C 368.481 394.961,394.957 368.519,399.396 334.648 C 400.313 327.647,400.313 72.353,399.396 65.352 C 394.910 31.116,367.687 4.329,333.398 0.408 C 327.414 -0.276,70.006 -0.064,64.901 0.630 M61.290 50.388 C 165.960 54.609,258.825 111.064,310.926 202.148 C 335.217 244.613,347.937 290.762,349.821 343.262 L 350.063 350.000 325.092 350.000 L 300.121 350.000 299.881 341.504 C 296.193 211.046,189.073 103.844,58.691 100.127 L 50.000 99.879 50.000 74.940 L 50.000 50.000 51.074 50.010 C 51.665 50.015,56.262 50.185,61.290 50.388 M68.359 151.021 C 168.815 160.015,245.346 241.424,249.815 344.043 L 250.074 350.000 225.097 350.000 L 200.119 350.000 199.886 343.457 C 197.125 265.826,130.213 200.027,54.004 200.001 L 50.000 200.000 50.000 174.963 L 50.000 149.926 55.957 150.185 C 59.233 150.328,64.814 150.704,68.359 151.021 M104.883 250.394 C 139.838 254.248,160.340 291.500,144.526 322.424 C 124.518 361.547,67.133 357.657,52.870 316.211 C 41.108 282.032,69.219 246.462,104.883 250.394 " stroke="none" fill="#5c64f4" fill-rule="evenodd"></path></g></svg>